<svg width="62" height="41" viewBox="0 0 62 41" fill="none" xmlns="http://www.w3.org/2000/svg">
<path d="M17.9068 0.00543395C21.5021 -0.0878225 24.6639 1.02234 27.5727 3.09774C27.6261 3.2043 27.6796 3.31086 27.7346 3.42066C27.0863 3.21345 26.4655 2.97641 25.8421 2.70418C22.2017 1.17942 18.047 1.20363 14.3939 2.68266C12.5592 3.4699 10.9449 4.53926 9.43634 5.84253C9.30671 5.9543 9.17708 6.06606 9.04352 6.18122C5.89328 9.10182 3.82335 13.644 3.57101 17.9111C3.55177 18.5743 3.5441 19.2361 3.54607 19.8995C3.54621 20.0169 3.54635 20.1343 3.5465 20.2552C3.55398 22.1355 3.68383 23.9007 4.25452 25.7019C4.2936 25.8286 4.33269 25.9553 4.37296 26.0858C5.17788 28.6268 6.39056 30.7853 8.14088 32.8061C8.299 33.0015 8.299 33.0015 8.46032 33.2009C10.8515 36.0441 14.5282 37.9014 18.1807 38.4571C21.0331 38.6934 23.6407 38.3583 26.2412 37.1421C26.36 37.0965 26.4787 37.051 26.6011 37.004C26.708 37.0573 26.8149 37.1106 26.925 37.1654C24.9289 38.5136 22.948 39.3741 20.6096 39.9102C20.485 39.9415 20.3604 39.9727 20.232 40.0048C16.0286 40.6553 11.8143 39.2576 8.37998 36.8829C8.01986 36.6108 7.6742 36.3285 7.33122 36.0352C7.13459 35.8685 7.13459 35.8685 6.93398 35.6984C4.04665 33.1816 1.97115 30.0354 0.793225 26.3982C0.754556 26.2795 0.715887 26.1608 0.676046 26.0385C0.109333 24.1782 -0.00904308 22.3192 0.00206785 20.3895C0.00381088 20.03 0.00207019 19.6706 1.2075e-05 19.3111C-0.00106369 18.0225 0.0693502 16.79 0.368154 15.53C0.421591 15.53 0.475029 15.53 0.530086 15.53C0.527542 15.6828 0.524998 15.8356 0.522377 15.993C0.51342 16.5731 0.507948 17.1533 0.5034 17.7335C0.500994 17.9821 0.497707 18.2307 0.493438 18.4793C0.454482 20.8099 0.714843 22.99 1.5118 25.1973C1.55867 25.3299 1.60555 25.4624 1.65384 25.5989C2.19733 27.0651 2.96394 28.4015 3.76872 29.7384C3.6846 29.5506 3.60048 29.3629 3.51381 29.1695C1.47502 24.5373 0.653433 19.7178 1.82554 14.7227C1.85161 14.6103 1.87767 14.498 1.90453 14.3822C2.73158 10.9601 4.40356 7.89467 6.84543 5.35816C6.97025 5.2235 7.09508 5.08884 7.22369 4.9501C9.99397 2.04935 13.8892 0.18988 17.9068 0.00543395Z" fill="#0F766E"/>
<path d="M29.729 33.1758L28.729 31.6758C19.129 38.4758 12.0623 32.5092 9.729 28.6758H7.229C14.729 41.1758 26.729 36.1758 29.729 33.1758Z" fill="#F97316"/>
<path d="M7.28522 18.2845L5.28522 22.2845C3.78528 -4.21556 32.7852 -0.715515 34.2852 14.2845L32.7852 14.2845C24.7852 -2.21554 6.78522 6.78448 7.28522 18.2845Z" fill="#F97316"/>
<path d="M18.229 26.6758H8.729L7.229 23.6758L12.229 13.1758L15.229 10.6758H25.729L24.729 13.1758H16.229L15.229 13.6758L10.729 23.1758L11.229 23.6758H16.229L18.729 18.6758H15.729L16.729 16.6758H22.729L18.229 26.6758Z" fill="#0F766E"/>
<path d="M22.229 22.1758L18.729 29.6758H22.229L24.229 24.6758H26.729L32.229 33.6758L34.229 31.1758L30.229 24.6758L32.729 23.1758L34.729 18.6758L32.729 16.6758H24.729L23.729 19.1758H31.229L29.729 22.1758H22.229Z" fill="#F97316"/>
<path d="M35.415 16.4365C35.415 15.6292 35.6169 14.9863 36.0205 14.5078C36.4242 14.0293 37.002 13.79 37.7539 13.79C38.3789 13.79 38.8965 14.0098 39.3066 14.4492C39.7201 14.8854 39.9268 15.5837 39.9268 16.5439C39.9268 16.6904 39.86 16.7637 39.7266 16.7637H36.3232C36.3786 17.3919 36.5479 17.8298 36.8311 18.0771C37.1143 18.3213 37.4349 18.4434 37.793 18.4434C38.1706 18.4434 38.4603 18.3799 38.6621 18.2529C38.8639 18.126 39.012 18.0007 39.1064 17.877C39.2106 17.7402 39.3115 17.7142 39.4092 17.7988L39.6973 18.0479C39.7721 18.113 39.7721 18.2025 39.6973 18.3164C39.6354 18.4108 39.458 18.5622 39.165 18.7705C38.8753 18.9788 38.418 19.083 37.793 19.083C36.9792 19.083 36.3786 18.8438 35.9912 18.3652C35.6071 17.8867 35.415 17.2438 35.415 16.4365ZM36.3037 16.1289H39.0625C39.0495 15.6732 38.9323 15.2744 38.7109 14.9326C38.4896 14.5876 38.1641 14.415 37.7344 14.415C37.3568 14.415 37.0361 14.542 36.7725 14.7959C36.5088 15.0465 36.3525 15.4909 36.3037 16.1289Z" fill="#0F766E"/>
<path d="M40.8545 18.5215C40.7536 18.4271 40.7324 18.3392 40.791 18.2578L41.0107 17.9502C41.0824 17.8525 41.1882 17.8574 41.3281 17.9648C41.5202 18.1113 41.7334 18.2285 41.9678 18.3164C42.2054 18.4043 42.4756 18.4482 42.7783 18.4482C42.9574 18.4482 43.1169 18.4271 43.2568 18.3848C43.3968 18.3392 43.5189 18.2562 43.623 18.1357C43.7305 18.0153 43.7842 17.8542 43.7842 17.6523C43.7842 17.5352 43.7581 17.4245 43.7061 17.3203C43.6572 17.2161 43.5791 17.1331 43.4717 17.0713C43.3675 17.0062 43.265 16.9557 43.1641 16.9199C42.998 16.8581 42.832 16.8076 42.666 16.7686C42.5033 16.7262 42.2884 16.6628 42.0215 16.5781C41.8424 16.5228 41.6732 16.4447 41.5137 16.3438C41.3542 16.2396 41.2142 16.0996 41.0938 15.9238C40.9766 15.748 40.918 15.5055 40.918 15.1963C40.918 14.8805 41.014 14.6087 41.2061 14.3809C41.3981 14.153 41.639 13.9984 41.9287 13.917C42.2184 13.8324 42.5 13.79 42.7734 13.79C43.1771 13.79 43.501 13.8372 43.7451 13.9316C43.9925 14.0228 44.2057 14.1318 44.3848 14.2588C44.4889 14.3337 44.5036 14.4199 44.4287 14.5176L44.209 14.8105C44.1406 14.9049 44.0348 14.9017 43.8916 14.8008C43.7712 14.7161 43.6003 14.6364 43.3789 14.5615C43.1576 14.4867 42.9639 14.4492 42.7979 14.4492C42.5928 14.4492 42.417 14.472 42.2705 14.5176C42.124 14.5632 42.0052 14.6413 41.9141 14.752C41.8229 14.8626 41.7773 14.9928 41.7773 15.1426C41.7773 15.2565 41.7952 15.359 41.8311 15.4502C41.8669 15.5381 41.9336 15.6195 42.0312 15.6943C42.1289 15.7692 42.2656 15.8294 42.4414 15.875C42.7148 15.9466 42.9639 16.0117 43.1885 16.0703C43.4163 16.1289 43.6214 16.2005 43.8037 16.2852C44.0413 16.3958 44.2236 16.5179 44.3506 16.6514C44.4808 16.7848 44.5703 16.9297 44.6191 17.0859C44.668 17.2389 44.6924 17.4098 44.6924 17.5986C44.6924 17.9469 44.5882 18.2415 44.3799 18.4824C44.1748 18.7233 43.9453 18.8844 43.6914 18.9658C43.4375 19.0439 43.1315 19.083 42.7734 19.083C42.2884 19.083 41.8717 19.0146 41.5234 18.8779C41.1784 18.738 40.9554 18.6191 40.8545 18.5215Z" fill="#0F766E"/>
<path d="M45.415 14.5176C45.2686 14.5176 45.1953 14.4606 45.1953 14.3467V14.0439C45.1953 13.93 45.2686 13.873 45.415 13.873H45.9912V13.4336C45.9912 13.3685 46.0075 13.3066 46.04 13.248L46.3818 12.6279C46.4437 12.514 46.4941 12.457 46.5332 12.457H46.7041C46.8018 12.457 46.8506 12.514 46.8506 12.6279V13.873H47.8906C48.0371 13.873 48.1104 13.93 48.1104 14.0439V14.3467C48.1104 14.4606 48.0371 14.5176 47.8906 14.5176H46.8506V17.6279C46.8506 17.9697 46.901 18.1927 47.002 18.2969C47.1061 18.3978 47.2298 18.4482 47.373 18.4482C47.4837 18.4482 47.6156 18.4157 47.7686 18.3506C47.9248 18.2855 48.0322 18.2301 48.0908 18.1846C48.1494 18.139 48.195 18.1536 48.2275 18.2285L48.3887 18.6045C48.4147 18.6696 48.3952 18.7217 48.3301 18.7607C48.2031 18.8356 48.0176 18.9089 47.7734 18.9805C47.5293 19.0488 47.2852 19.083 47.041 19.083C46.7025 19.083 46.4421 18.9609 46.2598 18.7168C46.0807 18.4727 45.9912 18.1276 45.9912 17.6816V14.5176H45.415Z" fill="#0F766E"/>
<path d="M49.585 19C49.4385 19 49.3652 18.9268 49.3652 18.7803V14.0928C49.3652 13.9463 49.4385 13.873 49.585 13.873H50.0049C50.1514 13.873 50.2246 13.9463 50.2246 14.0928V18.7803C50.2246 18.9268 50.1514 19 50.0049 19H49.585ZM49.585 12.9453C49.4385 12.9453 49.3652 12.8721 49.3652 12.7256V12.3057C49.3652 12.1592 49.4385 12.0859 49.585 12.0859H50.0049C50.1514 12.0859 50.2246 12.1592 50.2246 12.3057V12.7256C50.2246 12.8721 50.1514 12.9453 50.0049 12.9453H49.585Z" fill="#0F766E"/>
<path d="M51.333 16.4365C51.333 15.6715 51.5348 15.04 51.9385 14.542C52.3454 14.0407 52.9395 13.79 53.7207 13.79C54.502 13.79 55.0944 14.0407 55.498 14.542C55.9049 15.04 56.1084 15.6715 56.1084 16.4365C56.1084 17.2015 55.9049 17.8346 55.498 18.3359C55.0944 18.834 54.502 19.083 53.7207 19.083C52.9395 19.083 52.3454 18.834 51.9385 18.3359C51.5348 17.8346 51.333 17.2015 51.333 16.4365ZM52.2412 16.4365C52.2412 17.1201 52.3763 17.6263 52.6465 17.9551C52.9167 18.2839 53.2747 18.4482 53.7207 18.4482C54.1667 18.4482 54.5247 18.2839 54.7949 17.9551C55.0651 17.6263 55.2002 17.1201 55.2002 16.4365C55.2002 15.7529 55.0651 15.2467 54.7949 14.918C54.5247 14.5892 54.1667 14.4248 53.7207 14.4248C53.2747 14.4248 52.9167 14.5892 52.6465 14.918C52.3763 15.2467 52.2412 15.7529 52.2412 16.4365Z" fill="#0F766E"/>
<path d="M57.4365 19C57.29 19 57.2168 18.9268 57.2168 18.7803V14.0928C57.2168 13.9463 57.29 13.873 57.4365 13.873H57.8467C57.9932 13.873 58.0664 13.9463 58.0664 14.0928V14.4834H58.0859C58.2975 14.249 58.5254 14.0749 58.7695 13.9609C59.0137 13.847 59.318 13.79 59.6826 13.79C60.2751 13.79 60.6999 13.9577 60.957 14.293C61.2174 14.625 61.3477 15.0807 61.3477 15.6602V18.7803C61.3477 18.9268 61.2744 19 61.1279 19H60.708C60.5615 19 60.4883 18.9268 60.4883 18.7803V15.8945C60.4883 15.2565 60.3825 14.8529 60.1709 14.6836C59.9593 14.5111 59.6908 14.4248 59.3652 14.4248C58.9421 14.4248 58.6214 14.5518 58.4033 14.8057C58.1852 15.0563 58.0762 15.4876 58.0762 16.0996V18.7803C58.0762 18.9268 58.0029 19 57.8564 19H57.4365Z" fill="#0F766E"/>
<path d="M35.415 29.4365C35.415 28.6715 35.6169 28.04 36.0205 27.542C36.4274 27.0407 37.0215 26.79 37.8027 26.79C38.584 26.79 39.1764 27.0407 39.5801 27.542C39.987 28.04 40.1904 28.6715 40.1904 29.4365C40.1904 30.2015 39.987 30.8346 39.5801 31.3359C39.1764 31.834 38.584 32.083 37.8027 32.083C37.0215 32.083 36.4274 31.834 36.0205 31.3359C35.6169 30.8346 35.415 30.2015 35.415 29.4365ZM36.3232 29.4365C36.3232 30.1201 36.4583 30.6263 36.7285 30.9551C36.9987 31.2839 37.3568 31.4482 37.8027 31.4482C38.2487 31.4482 38.6068 31.2839 38.877 30.9551C39.1471 30.6263 39.2822 30.1201 39.2822 29.4365C39.2822 28.7529 39.1471 28.2467 38.877 27.918C38.6068 27.5892 38.2487 27.4248 37.8027 27.4248C37.3568 27.4248 36.9987 27.5892 36.7285 27.918C36.4583 28.2467 36.3232 28.7529 36.3232 29.4365Z" fill="#F97316"/>
<path d="M41.0205 29.4365C41.0205 28.7367 41.1898 28.1214 41.5283 27.5908C41.8669 27.057 42.3617 26.79 43.0127 26.79C43.387 26.79 43.6865 26.8519 43.9111 26.9756C44.1357 27.0993 44.3376 27.2686 44.5166 27.4834H44.5264C44.5199 27.3857 44.5166 27.2865 44.5166 27.1855V25.0127C44.5166 24.8662 44.5898 24.793 44.7363 24.793H45.1562C45.3027 24.793 45.376 24.8662 45.376 25.0127V31.7803C45.376 31.9268 45.3027 32 45.1562 32H44.7461C44.6289 32 44.5654 31.9268 44.5557 31.7803L44.5264 31.3896H44.5166C44.3376 31.6045 44.1357 31.7738 43.9111 31.8975C43.6865 32.0212 43.387 32.083 43.0127 32.083C42.3617 32.083 41.8669 31.8177 41.5283 31.2871C41.1898 30.7533 41.0205 30.1364 41.0205 29.4365ZM41.9287 29.4365C41.9287 30.0355 42.0312 30.5205 42.2363 30.8916C42.4447 31.2627 42.7962 31.4482 43.291 31.4482C43.6426 31.4482 43.9339 31.3294 44.165 31.0918C44.3994 30.8509 44.5166 30.4863 44.5166 29.998V28.875C44.5166 28.3867 44.3994 28.0238 44.165 27.7861C43.9339 27.5452 43.6426 27.4248 43.291 27.4248C42.7962 27.4248 42.4447 27.6104 42.2363 27.9814C42.0312 28.3525 41.9287 28.8376 41.9287 29.4365Z" fill="#F97316"/>
<path d="M46.4893 30.6328C46.4893 30.0534 46.7594 29.6286 47.2998 29.3584C47.8434 29.0882 48.654 28.9303 49.7314 28.8848V28.5527C49.7314 28.2467 49.6615 27.9831 49.5215 27.7617C49.3848 27.5371 49.1113 27.4248 48.7012 27.4248C48.4408 27.4248 48.2324 27.4508 48.0762 27.5029C47.9199 27.5518 47.7767 27.6185 47.6465 27.7031C47.5195 27.7845 47.3975 27.8903 47.2803 28.0205C47.1924 28.1182 47.1094 28.123 47.0312 28.0352L46.7773 27.7422C46.7057 27.6608 46.7301 27.5632 46.8506 27.4492C47.0231 27.2865 47.1908 27.1644 47.3535 27.083C47.5163 27.0016 47.7181 26.9333 47.959 26.8779C48.2031 26.8193 48.4505 26.79 48.7012 26.79C49.3815 26.79 49.8665 26.9658 50.1562 27.3174C50.446 27.6657 50.5908 28.1442 50.5908 28.7529V31.7803C50.5908 31.9268 50.5176 32 50.3711 32H49.9316C49.8047 32 49.7412 31.9268 49.7412 31.7803V31.541H49.7314C49.4743 31.7428 49.222 31.8844 48.9746 31.9658C48.7305 32.0439 48.457 32.083 48.1543 32.083C47.6204 32.083 47.2087 31.9561 46.9189 31.7021C46.6325 31.445 46.4893 31.0885 46.4893 30.6328ZM47.3779 30.6523C47.3779 30.8542 47.4202 31.0169 47.5049 31.1406C47.5895 31.2611 47.7067 31.3392 47.8564 31.375C48.0062 31.4076 48.1624 31.4238 48.3252 31.4238C48.5758 31.4238 48.8135 31.3994 49.0381 31.3506C49.2627 31.3018 49.4938 31.1732 49.7314 30.9648V29.5244C49.0739 29.5732 48.6051 29.6335 48.3252 29.7051C48.0452 29.7734 47.8174 29.8939 47.6416 30.0664C47.4658 30.2357 47.3779 30.431 47.3779 30.6523Z" fill="#F97316"/>
<path d="M51.7041 29.4365C51.7041 28.7367 51.8734 28.1214 52.2119 27.5908C52.5505 27.057 53.0452 26.79 53.6963 26.79C54.0706 26.79 54.3701 26.8519 54.5947 26.9756C54.8193 27.0993 55.0212 27.2686 55.2002 27.4834H55.21C55.2035 27.3857 55.2002 27.2865 55.2002 27.1855V25.0127C55.2002 24.8662 55.2734 24.793 55.4199 24.793H55.8398C55.9863 24.793 56.0596 24.8662 56.0596 25.0127V31.7803C56.0596 31.9268 55.9863 32 55.8398 32H55.4297C55.3125 32 55.249 31.9268 55.2393 31.7803L55.21 31.3896H55.2002C55.0212 31.6045 54.8193 31.7738 54.5947 31.8975C54.3701 32.0212 54.0706 32.083 53.6963 32.083C53.0452 32.083 52.5505 31.8177 52.2119 31.2871C51.8734 30.7533 51.7041 30.1364 51.7041 29.4365ZM52.6123 29.4365C52.6123 30.0355 52.7148 30.5205 52.9199 30.8916C53.1283 31.2627 53.4798 31.4482 53.9746 31.4482C54.3262 31.4482 54.6175 31.3294 54.8486 31.0918C55.083 30.8509 55.2002 30.4863 55.2002 29.998V28.875C55.2002 28.3867 55.083 28.0238 54.8486 27.7861C54.6175 27.5452 54.3262 27.4248 53.9746 27.4248C53.4798 27.4248 53.1283 27.6104 52.9199 27.9814C52.7148 28.3525 52.6123 28.8376 52.6123 29.4365Z" fill="#F97316"/>
<path d="M57.1729 29.4365C57.1729 28.6715 57.3747 28.04 57.7783 27.542C58.1852 27.0407 58.7793 26.79 59.5605 26.79C60.3418 26.79 60.9342 27.0407 61.3379 27.542C61.7448 28.04 61.9482 28.6715 61.9482 29.4365C61.9482 30.2015 61.7448 30.8346 61.3379 31.3359C60.9342 31.834 60.3418 32.083 59.5605 32.083C58.7793 32.083 58.1852 31.834 57.7783 31.3359C57.3747 30.8346 57.1729 30.2015 57.1729 29.4365ZM58.0811 29.4365C58.0811 30.1201 58.2161 30.6263 58.4863 30.9551C58.7565 31.2839 59.1146 31.4482 59.5605 31.4482C60.0065 31.4482 60.3646 31.2839 60.6348 30.9551C60.9049 30.6263 61.04 30.1201 61.04 29.4365C61.04 28.7529 60.9049 28.2467 60.6348 27.918C60.3646 27.5892 60.0065 27.4248 59.5605 27.4248C59.1146 27.4248 58.7565 27.5892 58.4863 27.918C58.2161 28.2467 58.0811 28.7529 58.0811 29.4365Z" fill="#F97316"/>
</svg>
